<?xml version="1.0" standalone="no"?>
<!DOCTYPE svg PUBLIC "-//W3C//DTD SVG 20010904//EN"
 "http://www.w3.org/TR/2001/REC-SVG-20010904/DTD/svg10.dtd">
<svg version="1.0" xmlns="http://www.w3.org/2000/svg"
 width="556.000000pt" height="582.000000pt" viewBox="0 0 556.000000 582.000000"
 preserveAspectRatio="xMidYMid meet">

<g transform="translate(0.000000,582.000000) scale(0.100000,-0.100000)"
fill="#000000" stroke="none">
<path d="M0 2910 l0 -2910 2780 0 2780 0 0 2910 0 2910 -2780 0 -2780 0 0
-2910z m2367 2684 c19 -24 26 -26 70 -21 35 4 53 1 68 -10 19 -14 17 -15 -21
-9 -36 5 -42 3 -52 -18 -13 -29 -28 -32 -127 -26 l-80 5 57 14 c51 12 56 16
40 27 -23 16 -154 23 -159 8 -2 -7 10 -18 27 -25 54 -25 32 -26 -60 -2 -122
30 -152 48 -117 70 14 10 223 22 287 17 34 -3 50 -10 67 -30z m303 -61 c0 -8
18 -22 40 -30 58 -23 51 -49 -10 -45 -54 5 -77 16 -85 41 -3 12 -19 22 -38 26
-55 12 -54 20 3 25 68 6 90 2 90 -17z m97 -1586 c7 -24 7 -36 -2 -44 -26 -24
-36 3 -26 70 3 18 19 4 28 -26z m27 -167 c19 -58 8 -101 -31 -119 -41 -19 -57
4 -54 81 1 49 6 67 22 80 29 24 45 13 63 -42z m-364 -85 c0 -9 -9 -15 -21 -15
-18 0 -19 2 -9 15 7 8 16 15 21 15 5 0 9 -7 9 -15z m1650 -120 c10 -12 10 -18
-1 -31 -12 -14 -14 -14 -20 3 -17 41 -4 58 21 28z m14 -91 c9 -24 8 -26 -14
-14 -11 6 -18 15 -15 21 9 14 22 11 29 -7z m-1608 -35 c8 -6 14 -25 14 -41 0
-27 3 -29 32 -26 33 3 51 -17 24 -28 -9 -3 -16 -15 -16 -26 0 -14 5 -18 15
-14 17 6 65 -13 65 -26 0 -4 -6 -8 -12 -9 -10 0 -10 -2 0 -6 6 -2 10 -9 6 -14
-8 -13 10 -11 24 3 9 9 15 9 23 1 8 -8 6 -26 -8 -64 -10 -30 -19 -56 -20 -58
-2 -3 -13 5 -26 16 -25 23 -49 23 -73 -1 -8 -9 -20 -13 -26 -10 -5 3 -16 -3
-24 -14 -7 -11 -25 -23 -39 -26 -14 -4 -25 -12 -25 -19 0 -6 -17 -21 -38 -32
-22 -12 -36 -28 -36 -37 1 -10 -2 -16 -6 -15 -5 2 -84 -65 -165 -140 -19 -18
-42 -16 -53 3 -8 14 -11 14 -30 -6 -21 -23 -35 -70 -21 -70 5 0 5 -7 2 -17 -5
-12 -3 -14 8 -8 8 5 7 1 -3 -12 -10 -11 -18 -24 -18 -29 0 -5 -9 -15 -20 -22
-27 -16 -25 -32 3 -33 21 0 21 -1 3 -12 -36 -22 -67 -57 -61 -68 4 -6 14 -8
22 -5 9 4 13 1 10 -6 -2 -7 -11 -11 -18 -9 -8 2 -22 4 -31 5 -10 0 -18 4 -18
8 0 20 -33 5 -69 -31 -28 -28 -38 -45 -35 -62 3 -16 -6 -35 -24 -57 l-29 -32
-12 27 c-11 24 -11 25 5 12 16 -13 16 -12 4 11 -8 14 -13 28 -12 32 5 18 -28
13 -46 -7 -14 -16 -27 -22 -41 -18 -14 4 -21 1 -21 -10 0 -8 -10 -22 -22 -30
-19 -13 -20 -16 -5 -16 24 -1 32 3 29 12 -1 5 2 6 7 2 18 -11 0 -36 -21 -29
-14 4 -21 0 -25 -15 -3 -12 -10 -21 -15 -21 -5 0 -6 5 -2 11 12 21 14 68 2 75
-7 4 -8 3 -4 -4 4 -8 2 -10 -8 -6 -9 4 -12 13 -9 27 9 33 5 107 -6 121 -7 8
-7 24 -1 47 12 41 13 92 2 85 -4 -2 -8 4 -8 15 0 10 4 19 8 19 4 0 8 6 8 14 0
7 7 19 15 26 8 7 13 15 11 19 -7 11 12 36 21 28 4 -5 3 -11 -2 -15 -6 -4 -11
-17 -12 -30 -3 -23 -2 -23 26 5 16 15 27 31 24 36 -2 4 -1 7 4 6 27 -5 43 3
43 21 0 30 32 60 58 55 30 -5 57 22 40 42 -6 8 -22 13 -35 10 -15 -3 -23 1
-23 10 0 8 5 11 12 7 8 -5 9 -2 5 9 -3 10 -2 17 4 17 6 0 8 4 4 9 -3 5 -1 12
5 16 5 3 10 1 10 -4 0 -21 30 -11 46 15 10 14 20 21 23 16 16 -23 39 -18 76
19 21 21 42 39 47 39 4 0 11 18 14 40 5 32 12 42 31 46 13 4 22 9 19 12 -7 6
62 105 77 111 5 2 19 14 31 28 11 13 38 34 58 46 21 11 38 25 38 31 0 5 3 6 7
3 3 -4 12 2 20 13 10 14 23 18 44 16 16 -2 44 0 62 4 38 8 64 5 83 -11z m1674
-104 c0 -28 -15 -41 -23 -21 -3 8 -16 16 -28 18 -23 3 -24 3 -20 81 1 20 4 19
36 -16 20 -21 35 -49 35 -62z m-962 41 c52 -19 132 -69 182 -115 24 -22 55
-42 69 -45 29 -7 111 -101 125 -144 5 -15 20 -39 34 -54 14 -16 23 -28 19 -28
-4 0 1 -12 10 -27 10 -15 12 -24 5 -19 -7 4 -19 1 -27 -8 -8 -8 -10 -16 -5
-18 6 -2 1 -9 -11 -16 -12 -8 -18 -9 -15 -4 6 11 -16 22 -42 22 -15 0 -15 -2
-2 -10 8 -5 11 -10 6 -10 -5 0 -2 -8 8 -19 9 -10 14 -25 11 -32 -3 -8 3 -24
13 -34 9 -11 16 -28 14 -37 -2 -13 3 -18 17 -18 14 0 19 5 14 15 -5 13 -2 14
20 4 14 -6 29 -19 32 -28 3 -8 3 -12 -1 -8 -4 4 -14 1 -22 -6 -13 -10 -14 -9
-8 2 6 9 5 12 -5 9 -8 -3 -13 -13 -13 -22 2 -14 -1 -15 -14 -4 -30 24 -57 51
-42 43 13 -8 13 -7 1 8 -19 24 -34 21 -25 -5 l6 -23 -23 21 c-29 26 -99 41
-109 23 -5 -8 -14 -2 -26 17 -10 16 -27 35 -37 43 -13 9 -16 16 -7 21 17 11
-19 79 -46 86 -13 3 -25 16 -28 30 -4 13 -10 24 -14 24 -5 0 -39 29 -77 65
-38 36 -74 65 -79 65 -18 0 -46 33 -46 56 0 15 -8 25 -22 30 -13 4 -37 17 -54
30 -25 19 -30 29 -26 53 3 26 8 29 38 28 41 -1 51 7 34 29 -12 13 -11 17 1 25
17 12 116 3 167 -15z m-217 -237 c22 -23 39 -42 37 -44 -12 -12 -56 11 -71 37
-34 60 -21 63 34 7z m124 -59 c-3 -4 1 -11 7 -13 8 -3 6 -6 -4 -6 -12 -1 -18
6 -18 20 0 11 5 17 10 14 6 -4 8 -10 5 -15z m38 -73 c9 -1 17 -4 17 -8 0 -4
10 -10 23 -13 12 -3 30 -17 40 -31 16 -22 16 -24 1 -18 -12 4 -15 3 -10 -5 10
-16 0 -15 -28 3 -12 8 -45 17 -72 20 -44 4 -45 4 -11 -4 21 -4 43 -14 50 -21
10 -10 8 -12 -8 -6 -11 4 -56 13 -100 19 l-80 12 50 5 c76 8 -253 24 -350 17
-60 -5 -75 -4 -61 5 19 11 461 5 521 -7 l30 -6 -31 15 c-40 18 -58 42 -23 32
13 -5 32 -8 42 -9z m-612 -46 c-6 -10 -7 -21 -4 -25 3 -3 -1 -6 -10 -6 -22 0
-22 19 1 36 23 18 24 17 13 -5z m422 -8 c-7 -2 -19 -2 -25 0 -7 3 -2 5 12 5
14 0 19 -2 13 -5z m-28 -48 c121 0 244 3 273 7 30 4 50 3 47 -2 -20 -33 -352
-49 -535 -25 -58 8 -111 14 -117 15 -7 0 -13 4 -13 10 0 6 23 7 63 2 34 -4
161 -7 282 -7z m-385 -42 c0 18 16 24 22 8 5 -14 154 -31 189 -21 16 5 31 5
34 0 3 -5 43 -9 88 -8 45 0 108 -5 139 -11 32 -7 66 -11 75 -9 10 1 25 -2 33
-7 36 -23 55 -13 51 28 -1 9 3 17 9 17 6 0 8 -6 4 -12 -4 -7 7 0 24 16 l31 29
-4 -34 c-2 -19 -9 -68 -15 -109 -11 -81 -30 -362 -24 -369 2 -2 10 2 19 9 19
15 19 10 1 -37 -8 -21 -17 -46 -20 -56 -5 -15 -9 -16 -28 -5 -13 7 -26 11 -30
10 -4 -1 -22 -3 -40 -4 -23 -2 -46 -15 -77 -45 l-45 -43 -107 0 -106 0 38 73
c51 95 50 157 -3 214 -11 12 -17 26 -14 32 5 7 0 8 -11 4 -11 -4 -14 -3 -8 3
5 5 13 13 17 18 3 5 13 -6 21 -25 13 -30 15 -31 15 -9 -1 42 1 50 17 50 8 0
15 4 15 9 0 4 -18 6 -40 4 -32 -4 -40 -2 -40 11 0 19 26 22 33 4 3 -8 6 -5 6
6 1 13 6 17 21 13 11 -3 20 -2 20 3 0 4 14 10 30 14 21 4 30 11 30 26 0 11 5
20 11 20 6 0 8 -7 5 -16 -7 -19 12 -47 25 -38 5 3 9 1 9 -5 0 -6 -11 -13 -25
-17 -14 -3 -22 -11 -19 -16 4 -6 0 -15 -7 -20 -11 -8 -11 -11 -1 -15 10 -4 9
-8 -5 -19 -10 -7 -13 -14 -6 -14 6 0 15 5 18 10 3 6 15 10 26 10 10 0 19 6 19
14 0 8 5 18 12 22 7 5 9 0 6 -14 -4 -14 3 -31 23 -53 16 -17 25 -37 22 -43 -4
-6 0 -6 9 1 18 15 29 7 21 -14 -5 -12 -2 -13 13 -6 10 6 25 8 32 6 6 -3 12 2
12 11 0 9 -5 16 -10 16 -6 0 -4 14 4 35 9 20 12 43 9 52 -4 11 -2 14 8 11 8
-3 13 -17 12 -34 -1 -16 1 -21 3 -12 3 9 11 15 19 12 11 -4 10 2 -1 37 -12 34
-13 44 -2 50 10 7 10 9 -1 9 -8 0 -12 3 -8 6 3 4 14 4 23 0 12 -5 13 -10 6
-19 -8 -10 -6 -13 7 -14 10 -1 18 5 18 13 0 8 -4 14 -8 14 -4 0 -9 7 -12 14
-4 10 -1 13 9 9 10 -4 14 3 14 27 l0 32 -72 -7 c-62 -5 -230 -6 -492 -1 -49 1
-59 -2 -62 -16 -1 -10 5 -22 14 -27 15 -9 15 -11 -3 -31 -17 -19 -17 -20 -1
-14 16 6 17 5 5 -15 -8 -11 -19 -21 -26 -21 -7 0 -13 -5 -13 -11 0 -5 3 -8 8
-6 14 9 29 -19 21 -41 -7 -18 -29 -32 -29 -18 0 2 -3 12 -7 22 -4 12 -3 15 5
10 7 -4 12 -2 12 3 0 6 -9 11 -20 11 -16 0 -20 -7 -20 -34 0 -19 5 -38 11 -41
6 -4 8 -14 5 -22 -4 -9 13 -3 48 16 56 32 85 41 52 16 -23 -18 -4 -20 22 -4
14 9 26 8 48 -2 31 -15 46 -56 20 -56 -8 0 -12 6 -9 13 2 6 0 14 -4 17 -5 3
-10 -4 -10 -16 -5 -55 -13 -68 -41 -65 -15 2 -26 8 -25 14 1 7 -8 11 -21 10
-20 -1 -22 -4 -15 -39 13 -72 1 -85 -55 -61 -16 6 -18 4 -14 -20 5 -23 1 -29
-31 -43 -20 -9 -39 -19 -43 -21 -5 -2 -8 3 -8 12 0 8 -9 20 -19 26 -34 18 -36
49 -5 81 15 16 35 29 43 29 14 0 14 1 1 10 -11 7 -25 -1 -57 -32 -23 -22 -40
-46 -39 -52 2 -6 1 -8 -1 -3 -9 15 -23 6 -23 -14 0 -13 -4 -18 -12 -13 -6 4
-4 -3 5 -17 9 -13 17 -30 17 -39 0 -13 -1 -13 -11 0 -7 11 -8 4 -4 -25 6 -40
-7 -40 -19 0 -3 11 -4 2 -2 -20 4 -40 4 -40 -8 -11 -10 22 -14 25 -19 12 -3
-8 -2 -18 3 -21 5 -3 6 -13 3 -21 -5 -15 -7 -14 -15 1 -5 9 -7 23 -4 31 3 8 0
14 -6 14 -7 0 -7 4 -1 13 6 6 10 20 10 29 0 13 -4 15 -18 8 -20 -11 -89 -90
-89 -102 0 -9 -62 -43 -73 -40 -5 1 -6 -2 -2 -8 3 -6 -4 -24 -17 -41 -26 -34
-97 -113 -79 -87 9 12 9 18 1 23 -6 4 -9 14 -6 22 3 8 1 11 -4 8 -6 -3 -10 -3
-10 2 0 4 13 14 29 21 17 7 32 23 35 37 4 14 13 25 21 25 8 0 14 3 13 8 -3 10
50 92 60 92 4 0 13 9 19 19 10 16 9 18 -8 14 -11 -3 -19 0 -19 7 0 6 9 14 20
17 11 3 20 10 20 15 0 6 6 6 14 -1 12 -10 17 -8 25 7 5 10 24 34 40 51 17 18
31 39 31 47 0 27 23 62 36 57 20 -8 44 15 44 42 0 13 7 25 15 29 19 7 19 -7 0
-43 -14 -28 -13 -29 10 -33 32 -7 39 1 20 22 -13 15 -10 18 35 34 l50 18 0
186 c0 185 0 185 -20 167 -31 -28 -33 -13 -2 20 15 16 26 31 25 32 -2 2 -3 9
-3 16 1 6 9 -4 20 -23 12 -22 19 -28 20 -17z m-235 17 c-3 -5 -13 -10 -21 -10
-8 0 -12 5 -9 10 3 6 13 10 21 10 8 0 12 -4 9 -10z m1020 0 c3 -5 1 -10 -4
-10 -6 0 -11 5 -11 10 0 6 2 10 4 10 3 0 8 -4 11 -10z m-1077 -30 c-7 -10 -14
-18 -15 -16 -6 6 9 36 18 36 5 0 4 -9 -3 -20z m1485 -29 c-22 -23 -80 -33 -87
-14 -3 8 2 13 14 13 10 0 22 5 25 10 3 6 20 10 36 10 29 0 29 -1 12 -19z
m-1593 -11 c0 -23 -4 -24 -32 -9 -17 9 -18 13 -7 20 23 15 39 10 39 -11z m300
5 c10 -12 9 -16 -4 -21 -9 -3 -16 -11 -16 -18 -1 -16 -48 -48 -60 -41 -10 6
10 44 40 77 19 21 25 22 40 3z m1356 -15 c0 -10 -2 -17 -5 -15 -2 3 -9 0 -16
-5 -8 -7 -12 -5 -12 5 0 8 4 12 9 9 4 -3 8 2 8 11 0 10 -5 13 -12 9 -7 -4 -8
-3 -4 4 10 17 32 4 32 -18z m-1580 -35 c-19 -28 -39 -34 -29 -7 7 18 35 43 42
36 2 -2 -4 -15 -13 -29z m1630 -70 c13 -38 25 -89 26 -111 2 -26 7 -40 14 -37
15 5 46 -39 67 -97 12 -33 15 -66 12 -120 -6 -94 -6 -100 -17 -100 -12 0 -10
-58 2 -65 10 -6 7 -45 -5 -65 -11 -18 -34 -11 -51 15 -13 21 -15 33 -6 66 6
23 9 50 7 61 -3 11 0 29 6 39 7 14 4 29 -11 59 -17 33 -18 43 -8 60 7 11 16
20 20 20 7 0 6 13 -6 50 -8 26 -73 90 -91 90 -6 0 -17 9 -25 20 -8 11 -25 20
-38 20 -18 0 -23 4 -18 16 3 8 2 12 -4 9 -6 -4 -8 7 -6 27 2 18 8 32 12 32 5
-1 24 -4 42 -8 21 -3 31 -2 27 4 -3 6 0 10 7 10 9 0 9 3 -2 10 -8 5 -11 10 -5
10 5 0 4 5 -3 12 -21 21 -15 50 10 46 17 -2 26 -18 44 -73z m-1676 26 c0 -5
-18 -28 -39 -50 -32 -33 -41 -38 -50 -27 -9 11 -2 20 34 42 25 16 45 32 45 37
0 4 2 7 5 7 3 0 5 -4 5 -9z m1020 -21 c0 -5 -5 -10 -11 -10 -5 0 -7 5 -4 10 3
6 8 10 11 10 2 0 4 -4 4 -10z m-1172 -192 c-3 -7 -17 -15 -33 -16 -25 -3 -27
-2 -16 12 16 19 55 22 49 4z m572 -13 c-7 -8 -20 -15 -29 -14 -13 0 -14 1 -1
6 8 3 19 12 23 20 5 8 11 12 14 9 3 -3 0 -12 -7 -21z m170 3 c0 -12 -1 -19 -3
-17 -1 2 -9 12 -16 22 -12 14 -11 17 3 17 10 0 16 -8 16 -22z m-907 -108 c-3
-11 -9 -20 -14 -20 -5 0 -9 9 -9 20 0 11 6 20 14 20 9 0 12 -7 9 -20z m1221
-126 c-3 -35 -14 -44 -14 -12 0 21 7 38 15 38 1 0 1 -12 -1 -26z m36 16 c0 -5
-2 -10 -4 -10 -3 0 -8 5 -11 10 -3 6 -1 10 4 10 6 0 11 -4 11 -10z m98 -25 c7
-5 -22 -54 -34 -59 -8 -3 -28 8 -44 24 -17 17 -26 30 -20 30 5 0 10 9 10 20 0
19 1 19 43 3 23 -9 43 -17 45 -18z m-814 -1 c3 -8 2 -12 -4 -9 -6 3 -10 10
-10 16 0 14 7 11 14 -7z m894 -48 c19 -17 22 -18 22 -3 0 9 -5 17 -12 17 -6 0
-9 2 -6 5 11 11 79 -30 91 -54 10 -22 10 -32 -4 -61 -14 -29 -17 -32 -22 -15
-4 18 -5 18 -6 -2 -1 -16 -7 -23 -21 -23 -17 0 -19 4 -14 26 5 20 4 25 -6 19
-7 -4 -16 -2 -20 5 -6 9 -11 7 -19 -9 -7 -11 -18 -21 -26 -21 -16 0 -20 12 -7
24 4 4 7 32 7 62 0 30 -3 54 -7 54 -5 0 -8 5 -8 11 0 12 14 4 58 -35z m376
-36 c5 0 23 -16 42 -35 18 -19 41 -35 52 -35 13 0 23 -12 32 -40 7 -22 25 -50
40 -64 26 -22 29 -23 45 -8 16 16 17 16 7 -4 -6 -12 -7 -26 -2 -34 5 -8 6 -18
3 -22 -2 -5 1 -15 7 -23 9 -11 9 -15 1 -15 -6 0 -11 -6 -11 -13 0 -7 -6 -21
-12 -30 -11 -15 -13 -8 -12 40 1 40 0 45 -3 16 -2 -24 -9 -43 -15 -43 -5 0 -8
-7 -5 -14 4 -10 1 -13 -9 -9 -7 3 -14 10 -14 17 -1 6 -7 0 -15 -14 -8 -14 -14
-21 -15 -16 0 6 -5 5 -12 -2 -16 -16 -48 -15 -48 1 0 8 -18 20 -40 27 -35 11
-38 15 -29 33 7 12 7 17 1 13 -6 -3 -12 -1 -14 4 -2 6 -20 12 -39 13 -20 1
-43 8 -51 15 -8 6 -18 9 -21 5 -4 -3 -7 1 -7 9 0 9 -7 15 -16 14 -24 -2 -26
35 -4 66 18 24 18 28 5 42 -9 8 -15 18 -14 21 1 3 -2 16 -5 28 -5 18 -8 20
-16 7 -8 -12 -10 -11 -10 8 0 27 2 27 66 3 l50 -19 -3 46 c-4 50 -13 71 -13
31 0 -13 -4 -29 -8 -36 -4 -6 -7 10 -7 36 l0 47 55 -33 c30 -18 59 -33 64 -33z
m-1261 15 c9 -18 9 -19 -6 -6 -10 7 -17 23 -16 35 0 14 2 16 6 6 3 -8 10 -24
16 -35z m-183 -118 c0 -5 -4 -5 -10 -2 -5 3 -10 14 -10 23 0 15 2 15 10 2 5
-8 10 -19 10 -23z m1197 11 c-3 -8 -6 -5 -6 6 -1 11 2 17 5 13 3 -3 4 -12 1
-19z m-1217 -34 c23 -53 25 -63 8 -46 -14 14 -32 16 -23 3 3 -5 1 -12 -5 -16
-5 -3 -10 3 -10 14 0 12 -4 21 -10 21 -5 0 -9 10 -9 23 1 15 3 17 6 5 2 -9 10
-19 18 -22 11 -4 12 0 5 20 -23 60 -6 59 20 -2z m846 -51 c48 -23 94 -37 127
-40 66 -5 97 -15 232 -74 61 -26 168 -73 239 -103 70 -30 157 -74 192 -97 63
-40 78 -54 50 -43 -8 3 -22 -5 -31 -18 -10 -13 -15 -16 -12 -7 4 13 1 15 -14
12 -10 -3 -16 -9 -13 -14 3 -5 -5 -19 -17 -31 -17 -18 -20 -19 -16 -5 5 13 1
17 -16 17 -13 0 -28 -5 -35 -12 -9 -9 -12 -8 -12 8 -1 18 -1 18 -15 1 -10 -15
-21 -17 -44 -12 -17 4 -31 11 -31 17 0 6 -3 9 -6 5 -7 -7 -34 17 -34 30 0 10
-59 63 -69 63 -4 0 -11 -3 -15 -7 -10 -10 -56 -11 -56 -2 0 4 -11 10 -25 13
-14 4 -25 14 -25 22 0 11 -5 14 -16 10 -12 -4 -15 -2 -10 9 3 8 0 15 -6 15 -9
0 -9 3 0 12 18 18 15 49 -3 42 -8 -4 -15 -1 -15 6 0 13 -118 9 -140 -5 -15 -9
-61 15 -53 28 3 6 2 7 -4 4 -5 -3 -22 3 -39 14 -16 10 -23 19 -16 19 6 0 12 5
12 11 0 6 -9 9 -20 6 -10 -3 -24 1 -30 8 -6 7 -27 16 -46 20 -80 15 -102 43
-74 96 14 26 20 25 106 -18z m888 -38 c-7 -17 -20 -20 -28 -6 -7 10 3 21 20
21 8 0 11 -6 8 -15z m-1488 -59 c-3 -13 -9 -31 -12 -39 -6 -17 17 -13 106 17
123 41 232 42 251 2 9 -19 9 -19 -4 -3 -8 9 -19 17 -24 17 -14 0 -25 -44 -13
-48 22 -8 8 -19 -16 -14 -25 4 -26 3 -20 -21 5 -21 0 -34 -20 -57 -15 -16 -31
-27 -35 -24 -5 3 -9 -4 -9 -15 0 -17 -6 -21 -34 -21 -18 0 -39 -6 -45 -14 -12
-14 -91 -19 -91 -5 0 17 -20 9 -41 -15 -12 -14 -28 -22 -35 -19 -10 3 -12 0
-9 -10 4 -8 -1 -17 -9 -20 -9 -4 -16 -2 -16 3 0 6 -5 10 -11 10 -5 0 -7 -4 -4
-10 8 -14 -41 -13 -63 1 -13 8 -32 7 -75 -4 -38 -10 -68 -12 -87 -7 -17 5 -30
6 -30 3 0 -3 -9 2 -20 12 -15 14 -20 29 -18 54 3 30 10 39 57 67 30 18 106 47
173 66 76 21 122 39 125 48 20 63 42 98 29 46z m-446 -8 c0 -9 3 -8 10 2 5 8
12 11 16 7 12 -12 -11 -28 -29 -21 -18 7 -23 24 -7 24 6 0 10 -6 10 -12z m864
-67 c10 -21 16 -47 14 -57 -3 -14 -11 -5 -31 33 -31 60 -32 63 -14 63 8 0 22
-17 31 -39z m201 8 c5 -7 -5 -8 -32 -3 -51 9 -54 14 -10 14 20 0 39 -5 42 -11z
m1342 -39 c3 -11 9 -20 14 -20 5 0 5 -10 0 -22 -5 -13 -5 -32 -1 -44 12 -32
24 -204 14 -204 -5 1 -19 21 -31 46 -17 34 -20 50 -13 69 5 14 7 25 4 25 -4 0
-1 6 5 14 8 10 9 16 1 21 -6 3 -8 11 -5 16 4 5 2 9 -3 9 -5 0 -9 25 -8 55 1
55 13 73 23 35z m-1299 -246 c-3 -2 -24 17 -49 43 -24 26 -35 40 -24 32 18
-13 19 -13 7 3 -8 9 -20 14 -29 11 -9 -3 -14 -2 -12 3 3 5 11 22 19 37 l14 29
39 -77 c21 -42 37 -79 35 -81z m1090 111 c-3 -3 -9 2 -12 12 -6 14 -5 15 5 6
7 -7 10 -15 7 -18z m72 -80 c6 3 10 -3 10 -14 0 -27 -2 -26 -31 6 -13 15 -16
22 -7 14 9 -7 22 -10 28 -6z m-1485 -15 c4 -6 -5 -10 -19 -10 -14 0 -26 5 -26
10 0 6 9 10 19 10 11 0 23 -4 26 -10z m-869 -82 c-14 -33 -46 -59 -46 -38 0 6
8 10 18 10 14 0 15 2 2 10 -8 5 -12 10 -8 10 4 0 3 11 -2 24 -7 21 -6 23 11
19 12 -3 19 0 19 8 0 9 3 10 10 3 7 -7 6 -22 -4 -46z m590 -41 c14 -6 39 -5
69 1 62 13 91 -1 87 -42 -3 -24 -7 -27 -28 -23 -14 2 -24 0 -24 -8 0 -18 -30
-14 -43 6 -10 15 -12 15 -36 -7 -14 -13 -32 -22 -38 -19 -7 3 -19 7 -26 10 -7
3 -18 -7 -25 -24 -7 -16 -20 -32 -28 -35 -18 -7 -44 16 -44 39 0 12 -6 15 -20
10 -28 -9 -49 37 -29 61 32 39 130 56 185 31z m1931 -64 c-3 -10 -5 -4 -5 12
0 17 2 24 5 18 2 -7 2 -21 0 -30z m-1472 -63 c16 -17 16 -20 3 -15 -9 4 -19
13 -22 21 -7 19 -2 18 19 -6z m1243 -16 c-3 -14 -5 -12 -10 9 -3 19 -2 25 4
19 6 -6 8 -18 6 -28z m-1235 -51 c-7 -2 -19 -2 -25 0 -7 3 -2 5 12 5 14 0 19
-2 13 -5z m-783 -102 c0 -24 -29 -9 -39 20 -17 48 -13 53 14 21 14 -17 25 -35
25 -41z m851 27 c16 -30 7 -29 -19 3 -17 21 -19 27 -7 23 8 -4 20 -15 26 -26z
m-87 6 c10 -10 16 -11 16 -3 0 9 4 8 15 -1 8 -7 15 -17 15 -22 0 -7 -5 -6 -13
1 -8 6 -16 9 -19 6 -3 -3 -13 4 -23 15 -21 24 -14 27 9 4z m-24 -29 c13 -14
21 -25 18 -25 -2 0 -15 11 -28 25 -13 14 -21 25 -18 25 2 0 15 -11 28 -25z
m-36 -22 c5 1 15 -9 24 -23 l14 -25 -19 24 c-13 15 -22 20 -24 12 -3 -8 -11
-5 -24 10 -20 22 -20 22 0 11 11 -5 24 -9 29 -9z m-94 -47 c-1 -14 -30 -54
-30 -40 0 5 -4 3 -8 -4 -5 -7 -16 -10 -25 -6 -28 10 -19 41 17 61 22 12 46 7
46 -11z"/>
<path d="M2620 5520 c0 -5 5 -10 10 -10 6 0 10 5 10 10 0 6 -4 10 -10 10 -5 0
-10 -4 -10 -10z"/>
<path d="M2460 3318 c0 -9 -6 -18 -12 -21 -7 -2 -10 -8 -5 -13 4 -4 15 0 24 9
13 13 15 20 5 29 -9 9 -12 8 -12 -4z"/>
<path d="M1870 2995 c0 -8 4 -15 8 -15 5 0 9 7 9 15 0 8 -4 15 -9 15 -4 0 -8
-7 -8 -15z"/>
<path d="M2004 2758 c0 -16 2 -16 18 -1 10 9 18 17 18 19 0 1 -8 2 -18 1 -10
0 -18 -9 -18 -19z"/>
<path d="M1615 2730 c-3 -5 -4 -14 -1 -19 9 -13 46 -1 46 15 0 16 -36 19 -45
4z"/>
<path d="M1940 2660 c0 -5 7 -10 15 -10 8 0 15 5 15 10 0 6 -7 10 -15 10 -8 0
-15 -4 -15 -10z"/>
<path d="M3400 2870 c0 -5 4 -10 9 -10 6 0 13 5 16 10 3 6 -1 10 -9 10 -9 0
-16 -4 -16 -10z"/>
<path d="M2684 2773 c-23 -21 -24 -24 -7 -31 25 -10 399 -9 410 1 8 9 -23 37
-41 37 -6 0 -5 -4 3 -9 11 -7 11 -10 0 -17 -7 -4 -14 -3 -17 4 -2 7 -12 12
-23 12 -10 0 -19 4 -19 9 0 4 -15 6 -32 3 -18 -2 -42 -4 -53 -3 -35 2 -129 11
-163 14 -24 3 -39 -3 -58 -20z"/>
<path d="M3163 2793 c-7 -3 -13 -11 -13 -19 0 -8 -9 -14 -19 -14 -11 0 -22 -4
-25 -9 -7 -10 75 -3 86 8 10 9 -15 38 -29 34z"/>
<path d="M2850 2561 c0 -5 7 -11 15 -15 8 -3 15 -1 15 3 0 5 -7 11 -15 15 -8
3 -15 1 -15 -3z"/>
<path d="M2941 2526 c-10 -12 -8 -17 7 -25 16 -8 21 -7 26 5 12 31 -12 45 -33
20z m29 -6 c0 -5 -7 -10 -16 -10 -8 0 -12 5 -9 10 3 6 10 10 16 10 5 0 9 -4 9
-10z"/>
<path d="M3181 2484 c0 -11 3 -14 6 -6 3 7 2 16 -1 19 -3 4 -6 -2 -5 -13z"/>
<path d="M2988 2483 c7 -3 16 -2 19 1 4 3 -2 6 -13 5 -11 0 -14 -3 -6 -6z"/>
<path d="M2549 2450 c-13 -10 -19 -19 -13 -20 6 0 19 9 29 20 23 26 14 26 -16
0z"/>
<path d="M3285 2170 c3 -5 8 -10 11 -10 2 0 4 5 4 10 0 6 -5 10 -11 10 -5 0
-7 -4 -4 -10z"/>
<path d="M3496 2005 c-3 -8 -1 -15 4 -15 6 0 10 7 10 15 0 8 -2 15 -4 15 -2 0
-6 -7 -10 -15z"/>
<path d="M3060 1605 c7 -9 15 -13 17 -11 7 7 -7 26 -19 26 -6 0 -6 -6 2 -15z"/>
</g>
</svg>
